<svg viewBox="0 0 330 40" fill="none" xmlns="http://www.w3.org/2000/svg">
  <!-- Icon (chat bubble + sparkle + audio bars) -->
  <g transform="scale(0.27) translate(-193, -56)">
    <path d="M241.194 187.562C248.635 193.727 257.6 197.653 267.869 198.327C275.955 198.858 284.402 198.858 292.481 198.327C295.368 198.127 298.207 197.487 300.9 196.427C303.806 195.244 305.252 194.656 305.996 194.748C306.733 194.833 307.803 195.612 309.943 197.172C313.72 199.921 318.476 201.891 325.534 201.728C329.099 201.643 330.885 201.594 331.678 200.254C332.479 198.908 331.487 197.051 329.496 193.331C326.732 188.171 324.988 182.268 327.639 177.534C332.196 170.773 336.072 162.772 336.639 154.126C336.944 149.484 336.944 144.672 336.639 140.023C336.27 134.414 334.907 128.914 332.614 123.781" stroke="#3328BE" stroke-width="4" stroke-linecap="round" stroke-linejoin="round"/>
    <path d="M268.442 169.754C293.643 168.095 313.713 147.926 315.357 122.605C315.683 117.651 315.683 112.52 315.357 107.567C313.713 82.2526 293.643 62.0835 268.442 60.4252C259.846 59.8583 250.867 59.8583 242.292 60.4252C217.091 62.0835 197.021 82.2526 195.377 107.567C195.051 112.527 195.051 117.651 195.377 122.605C195.973 131.832 200.09 140.364 204.937 147.579C207.751 152.625 205.894 158.918 202.96 164.424C200.848 168.393 199.792 170.377 200.643 171.809C201.493 173.24 203.385 173.29 207.177 173.375C214.668 173.559 219.721 171.454 223.732 168.52C226.007 166.862 227.147 166.033 227.934 165.934C228.714 165.842 230.259 166.465 233.341 167.727C236.119 168.861 239.337 169.555 242.292 169.754C250.867 170.32 259.846 170.32 268.442 169.754Z" fill="#3328BE" stroke="#3328BE" stroke-width="4" stroke-linejoin="round"/>
    <path d="M262.705 99.724C264.866 99.4539 266.875 98.4713 268.416 96.9317C269.956 95.392 270.939 93.3831 271.21 91.2222C271.292 90.5513 271.831 90 272.508 90C273.185 90 273.724 90.5513 273.809 91.2222C274.079 93.3832 275.061 95.3925 276.601 96.9327C278.141 98.4729 280.15 99.4562 282.311 99.7272C282.982 99.8091 283.533 100.348 283.533 101.025C283.533 101.702 282.982 102.241 282.311 102.326C280.15 102.596 278.14 103.579 276.6 105.118C275.06 106.658 274.077 108.667 273.806 110.828C273.724 111.499 273.185 112.05 272.508 112.05C271.831 112.05 271.292 111.499 271.207 110.828C270.937 108.667 269.954 106.657 268.414 105.117C266.875 103.577 264.866 102.594 262.705 102.323C262.034 102.244 261.483 101.705 261.483 101.025C261.483 100.345 262.034 99.8091 262.705 99.724Z" fill="white"/>
    <path d="M242.583 118.35V127.8M252.033 108.9V137.25M261.483 115.2V130.95M233.133 121.5V124.65" stroke="white" stroke-width="4" stroke-linecap="round" stroke-linejoin="round"/>
  </g>
  <!-- "JINA" text (blue) -->
  <g transform="translate(47, 6) scale(0.683) translate(-61, -249)">
    <path d="M71.776 270.178H81.632V277.666C81.632 280.183 81.1413 282.338 80.16 284.13C79.2213 285.922 77.8347 287.287 76 288.226C74.1653 289.164 71.9467 289.634 69.344 289.634C67.04 289.634 65.1413 289.25 63.648 288.482C62.1547 287.714 61.408 286.391 61.408 284.514C61.408 283.703 61.536 282.999 61.792 282.402C62.048 281.804 62.304 281.335 62.56 280.994C63.3707 281.207 64.096 281.378 64.736 281.506C65.376 281.591 66.0587 281.634 66.784 281.634C68.5333 281.634 69.792 281.207 70.56 280.354C71.3707 279.5 71.776 278.199 71.776 276.45V270.178ZM81.632 274.402H71.776V249.826C72.2027 249.74 72.864 249.634 73.76 249.506C74.656 249.378 75.5093 249.314 76.32 249.314C78.1973 249.314 79.5413 249.634 80.352 250.274C81.2053 250.914 81.632 252.151 81.632 253.986V274.402ZM90.48 261.538H100.4V288.674C99.9733 288.802 99.3333 288.908 98.48 288.994C97.6267 289.122 96.752 289.186 95.856 289.186C93.8933 289.186 92.5067 288.844 91.696 288.162C90.8853 287.436 90.48 286.22 90.48 284.514V261.538ZM100.4 274.082H90.48V249.826C90.9493 249.74 91.6107 249.634 92.464 249.506C93.36 249.378 94.2347 249.314 95.088 249.314C96.9653 249.314 98.3093 249.634 99.12 250.274C99.9733 250.914 100.4 252.151 100.4 253.986V274.082ZM109.418 261.218L118.442 261.154C118.612 262.988 118.74 264.802 118.826 266.594C118.911 268.386 118.954 270.114 118.954 271.778C118.954 273.442 118.954 275.042 118.954 276.578V288.738C118.612 288.823 118.015 288.908 117.162 288.994C116.308 289.122 115.434 289.186 114.538 289.186C112.66 289.186 111.338 288.866 110.57 288.226C109.802 287.543 109.418 286.37 109.418 284.706V261.218ZM143.658 277.218L134.634 277.346C134.335 274.231 134.164 271.287 134.122 268.514C134.079 265.698 134.058 263.031 134.058 260.514V249.826C134.484 249.74 135.103 249.634 135.914 249.506C136.767 249.378 137.642 249.314 138.538 249.314C140.415 249.314 141.738 249.655 142.506 250.338C143.274 250.978 143.658 252.13 143.658 253.794V277.218ZM143.658 274.082V267.746V287.522C143.103 288.034 142.314 288.439 141.29 288.738C140.266 289.079 139.071 289.25 137.706 289.25C136.212 289.25 134.826 289.015 133.546 288.546C132.308 288.076 131.284 287.031 130.474 285.41L122.858 270.818C122.388 269.879 121.919 268.962 121.45 268.066C121.023 267.127 120.596 266.188 120.17 265.25C119.786 264.311 119.38 263.351 118.954 262.37L109.418 264.482V251.618C109.972 250.892 110.804 250.338 111.914 249.954C113.023 249.57 114.196 249.378 115.434 249.378C116.884 249.378 118.25 249.612 119.53 250.082C120.81 250.551 121.855 251.596 122.666 253.218L130.346 267.746C130.815 268.684 131.263 269.623 131.69 270.562C132.159 271.5 132.607 272.439 133.034 273.378C133.46 274.316 133.866 275.276 134.25 276.258L143.658 274.082ZM168.285 258.21H167.965C167.496 259.532 166.984 261.004 166.429 262.626C165.874 264.247 165.298 265.954 164.701 267.746C164.104 269.538 163.549 271.33 163.037 273.122L161.821 279.01C161.565 279.863 161.309 280.738 161.053 281.634C160.84 282.487 160.605 283.34 160.349 284.194C160.136 285.004 159.922 285.794 159.709 286.562C159.496 287.33 159.304 288.055 159.133 288.738C158.621 288.866 158.045 288.994 157.405 289.122C156.808 289.292 156.104 289.378 155.293 289.378C153.458 289.378 152.072 289.058 151.133 288.418C150.194 287.735 149.725 286.796 149.725 285.602C149.725 285.047 149.789 284.492 149.917 283.938C150.088 283.383 150.28 282.743 150.493 282.018C150.877 280.61 151.41 278.839 152.093 276.706C152.776 274.572 153.544 272.268 154.397 269.794C155.25 267.276 156.104 264.802 156.957 262.37C157.853 259.938 158.664 257.719 159.389 255.714C160.114 253.666 160.69 252.066 161.117 250.914C161.8 250.53 162.781 250.188 164.061 249.89C165.384 249.548 166.706 249.378 168.029 249.378C169.864 249.378 171.506 249.655 172.957 250.21C174.45 250.722 175.389 251.575 175.773 252.77C176.626 255.031 177.522 257.655 178.461 260.642C179.4 263.586 180.338 266.679 181.277 269.922C182.258 273.122 183.197 276.258 184.093 279.33C185.032 282.359 185.842 285.09 186.525 287.522C186.056 288.034 185.352 288.46 184.413 288.802C183.517 289.186 182.45 289.378 181.213 289.378C179.421 289.378 178.162 289.058 177.437 288.418C176.712 287.778 176.157 286.796 175.773 285.474L173.789 278.434L172.637 272.866C172.125 270.988 171.592 269.175 171.037 267.426C170.525 265.634 170.034 263.948 169.565 262.37C169.096 260.791 168.669 259.404 168.285 258.21ZM157.533 280.162L161.373 272.482H176.221L177.501 280.162H157.533Z" fill="#3328BE"/>
  </g>
  <!-- "Connect" text (black for light theme) -->
  <g transform="translate(47, 6) scale(0.683) translate(-61, -249)">
    <path d="M234.675 254.114C234.675 254.668 234.483 255.18 234.099 255.65C233.757 256.076 233.352 256.396 232.882 256.61C231.816 255.842 230.515 255.116 228.979 254.434C227.485 253.751 225.544 253.41 223.155 253.41C220.552 253.41 218.205 254.007 216.115 255.202C214.067 256.396 212.424 258.188 211.187 260.578C209.992 262.924 209.395 265.847 209.395 269.346C209.395 274.594 210.675 278.54 213.235 281.186C215.837 283.831 219.208 285.154 223.347 285.154C225.565 285.154 227.507 284.834 229.171 284.194C230.835 283.554 232.2 282.828 233.267 282.018C233.693 282.188 234.099 282.508 234.483 282.978C234.867 283.404 235.059 283.916 235.059 284.514C235.059 284.94 234.931 285.367 234.675 285.794C234.461 286.178 234.077 286.562 233.523 286.946C232.541 287.628 231.197 288.226 229.491 288.738C227.784 289.292 225.608 289.57 222.963 289.57C219.421 289.57 216.2 288.823 213.299 287.33C210.44 285.794 208.179 283.532 206.515 280.546C204.851 277.559 204.019 273.826 204.019 269.346C204.019 264.866 204.872 261.111 206.579 258.082C208.328 255.052 210.611 252.791 213.427 251.298C216.285 249.762 219.4 248.994 222.771 248.994C225.117 248.994 227.187 249.25 228.979 249.762C230.771 250.274 232.157 250.935 233.139 251.746C234.163 252.514 234.675 253.303 234.675 254.114ZM278.139 269.282C278.139 273.719 277.328 277.452 275.707 280.482C274.085 283.468 271.867 285.73 269.051 287.266C266.277 288.802 263.12 289.57 259.579 289.57C256.08 289.57 252.923 288.802 250.107 287.266C247.291 285.73 245.072 283.468 243.451 280.482C241.829 277.452 241.019 273.719 241.019 269.282C241.019 264.844 241.851 261.132 243.515 258.146C245.179 255.116 247.397 252.834 250.171 251.298C252.987 249.762 256.123 248.994 259.579 248.994C263.077 248.994 266.213 249.762 268.987 251.298C271.803 252.834 274.021 255.116 275.643 258.146C277.307 261.132 278.139 264.844 278.139 269.282ZM272.826 269.282C272.826 264.204 271.611 260.3 269.179 257.57C266.789 254.796 263.589 253.41 259.579 253.41C255.611 253.41 252.411 254.796 249.979 257.57C247.589 260.3 246.395 264.204 246.395 269.282C246.395 274.359 247.589 278.284 249.979 281.058C252.368 283.788 255.568 285.154 259.579 285.154C263.632 285.154 266.853 283.788 269.243 281.058C271.632 278.284 272.826 274.359 272.826 269.282ZM287.384 254.242L291.736 253.858C291.906 255.18 292.056 256.738 292.184 258.53C292.312 260.322 292.397 262.178 292.44 264.098C292.525 265.975 292.568 267.767 292.568 269.474V288.61C292.354 288.695 292.013 288.78 291.544 288.866C291.117 288.994 290.669 289.058 290.2 289.058C289.261 289.058 288.557 288.887 288.088 288.546C287.618 288.162 287.384 287.564 287.384 286.754V254.242ZM318.232 284.322L313.816 284.706C313.389 281.122 313.133 277.474 313.048 273.762C313.005 270.007 312.984 266.38 312.984 262.882V249.954C313.24 249.868 313.581 249.783 314.007 249.698C314.434 249.57 314.904 249.506 315.416 249.506C316.354 249.506 317.058 249.698 317.528 250.082C317.997 250.423 318.232 250.999 318.232 251.81V284.322ZM318.232 282.402V282.146V288.034C317.848 288.332 317.357 288.588 316.76 288.802C316.162 289.015 315.501 289.122 314.776 289.122C313.752 289.122 312.877 288.93 312.152 288.546C311.426 288.119 310.765 287.372 310.168 286.306L298.008 265.826C297.368 264.674 296.664 263.415 295.896 262.05C295.128 260.642 294.402 259.319 293.72 258.082C293.037 256.802 292.504 255.756 292.12 254.946L287.384 256.162V250.594C287.725 250.252 288.194 249.975 288.792 249.762C289.432 249.548 290.114 249.442 290.84 249.442C291.864 249.442 292.738 249.655 293.464 250.082C294.189 250.466 294.85 251.191 295.448 252.258L307.672 272.738C308.354 273.89 309.058 275.17 309.784 276.578C310.552 277.943 311.256 279.266 311.896 280.546C312.536 281.783 313.048 282.807 313.432 283.618L318.232 282.402ZM329.634 254.242L333.986 253.858C334.156 255.18 334.306 256.738 334.434 258.53C334.562 260.322 334.647 262.178 334.69 264.098C334.775 265.975 334.818 267.767 334.818 269.474V288.61C334.604 288.695 334.263 288.78 333.794 288.866C333.367 288.994 332.919 289.058 332.45 289.058C331.511 289.058 330.807 288.887 330.338 288.546C329.868 288.162 329.634 287.564 329.634 286.754V254.242ZM360.482 284.322L356.066 284.706C355.639 281.122 355.383 277.474 355.298 273.762C355.255 270.007 355.234 266.38 355.234 262.882V249.954C355.49 249.868 355.831 249.783 356.257 249.698C356.684 249.57 357.154 249.506 357.666 249.506C358.604 249.506 359.308 249.698 359.778 250.082C360.247 250.423 360.482 250.999 360.482 251.81V284.322ZM360.482 282.402V282.146V288.034C360.098 288.332 359.607 288.588 359.01 288.802C358.412 289.015 357.751 289.122 357.026 289.122C356.002 289.122 355.127 288.93 354.402 288.546C353.676 288.119 353.015 287.372 352.418 286.306L340.258 265.826C339.618 264.674 338.914 263.415 338.146 262.05C337.378 260.642 336.652 259.319 335.97 258.082C335.287 256.802 334.754 255.756 334.37 254.946L329.634 256.162V250.594C329.975 250.252 330.444 249.975 331.042 249.762C331.682 249.548 332.364 249.442 333.09 249.442C334.114 249.442 334.988 249.655 335.714 250.082C336.439 250.466 337.1 251.191 337.698 252.258L349.922 272.738C350.604 273.89 351.308 275.17 352.034 276.578C352.802 277.943 353.506 279.266 354.146 280.546C354.786 281.783 355.298 282.807 355.682 283.618L360.482 282.402ZM371.884 265.314H377.068V288.226C376.897 288.268 376.577 288.375 376.108 288.546C375.638 288.674 375.169 288.738 374.7 288.738C373.846 288.738 373.164 288.482 372.652 287.97C372.14 287.415 371.884 286.732 371.884 285.922V265.314ZM377.068 272.866L371.884 272.802V252.642C371.884 251.788 372.14 251.106 372.652 250.594C373.164 250.082 373.846 249.826 374.7 249.826C375.169 249.826 375.638 249.89 376.108 250.018C376.577 250.146 376.897 250.252 377.068 250.338V272.866ZM374.7 270.946V266.594H393.964C394.092 266.764 394.22 267.042 394.348 267.426C394.476 267.81 394.54 268.215 394.54 268.642C394.54 269.324 394.369 269.879 394.028 270.306C393.686 270.732 393.196 270.946 392.556 270.946H374.7ZM374.7 288.738V284.386H396.268C396.396 284.556 396.524 284.834 396.652 285.218C396.78 285.559 396.844 285.964 396.844 286.434C396.844 287.116 396.673 287.671 396.332 288.098C395.99 288.524 395.5 288.738 394.86 288.738H374.7ZM374.7 254.242V249.826H395.948C396.076 249.996 396.204 250.274 396.332 250.658C396.46 251.042 396.524 251.447 396.524 251.874C396.524 252.556 396.353 253.132 396.012 253.602C395.67 254.028 395.18 254.242 394.54 254.242H374.7ZM433.925 254.114C433.925 254.668 433.733 255.18 433.349 255.65C433.007 256.076 432.602 256.396 432.132 256.61C431.066 255.842 429.765 255.116 428.229 254.434C426.735 253.751 424.794 253.41 422.405 253.41C419.802 253.41 417.455 254.007 415.365 255.202C413.317 256.396 411.674 258.188 410.437 260.578C409.242 262.924 408.645 265.847 408.645 269.346C408.645 274.594 409.925 278.54 412.485 281.186C415.087 283.831 418.458 285.154 422.597 285.154C424.815 285.154 426.757 284.834 428.421 284.194C430.085 283.554 431.45 282.828 432.517 282.018C432.943 282.188 433.349 282.508 433.733 282.978C434.117 283.404 434.309 283.916 434.309 284.514C434.309 284.94 434.181 285.367 433.925 285.794C433.711 286.178 433.327 286.562 432.773 286.946C431.791 287.628 430.447 288.226 428.741 288.738C427.034 289.292 424.858 289.57 422.213 289.57C418.671 289.57 415.45 288.823 412.549 287.33C409.69 285.794 407.429 283.532 405.765 280.546C404.101 277.559 403.269 273.826 403.269 269.346C403.269 264.866 404.122 261.111 405.829 258.082C407.578 255.052 409.861 252.791 412.677 251.298C415.535 249.762 418.65 248.994 422.021 248.994C424.367 248.994 426.437 249.25 428.229 249.762C430.021 250.274 431.407 250.935 432.389 251.746C433.413 252.514 433.925 253.303 433.925 254.114ZM455.017 254.242L454.697 249.826H469.609C469.737 249.996 469.865 250.274 469.993 250.658C470.121 251.042 470.185 251.447 470.185 251.874C470.185 252.556 470.014 253.132 469.673 253.602C469.331 254.028 468.841 254.242 468.201 254.242H455.017ZM455.145 249.826L455.465 254.242H440.489C440.361 254.028 440.233 253.73 440.105 253.346C439.977 252.962 439.913 252.556 439.913 252.13C439.913 251.404 440.083 250.85 440.424 250.466C440.766 250.039 441.257 249.826 441.897 249.826H455.145ZM452.457 252.514H457.641V288.61C457.427 288.695 457.086 288.78 456.617 288.866C456.19 288.994 455.742 289.058 455.273 289.058C454.334 289.058 453.63 288.866 453.161 288.482C452.691 288.098 452.457 287.5 452.457 286.69V252.514Z" fill="black"/>
  </g>
</svg>
